<svg id="a" data-name="logo" xmlns="http://www.w3.org/2000/svg" xmlns:xlink="http://www.w3.org/1999/xlink" viewBox="0 0 229.4 44.26">
  <defs>
    <clipPath id="b">
      <path d="M28.09,0c1.96,0,3.8.1,5.49.29s3.32.48,4.87.84,3.06.8,4.53,1.3c1.47.51,2.95,1.07,4.44,1.69v4.72c-1.18-.74-2.44-1.45-3.77-2.11-1.33-.66-2.77-1.24-4.32-1.74s-3.2-.89-4.97-1.18c-1.77-.29-3.67-.43-5.7-.43-4.14,0-7.76.43-10.84,1.3-3.09.87-5.65,2.11-7.7,3.72-2.05,1.61-3.58,3.58-4.61,5.9-1.02,2.32-1.54,4.92-1.54,7.82,0,2.71.5,5.21,1.51,7.5,1.01,2.29,2.53,4.26,4.57,5.91,2.04,1.66,4.59,2.95,7.66,3.88,3.07.93,6.66,1.4,10.78,1.4,1.61,0,3.22-.06,4.8-.19s3.08-.28,4.49-.48c1.41-.2,2.69-.41,3.85-.65,1.16-.24,2.14-.48,2.95-.73v-12.94h-17.35v-3.63h21.23v18.75c-1.53.54-3.08,1.01-4.64,1.43s-3.18.76-4.84,1.04-3.39.49-5.18.64c-1.79.14-3.67.22-5.63.22-4.01,0-7.74-.45-11.17-1.35-3.44-.9-6.41-2.27-8.92-4.1s-4.48-4.13-5.91-6.91c-1.43-2.77-2.14-6.03-2.14-9.78,0-2.5.33-4.78.99-6.84.66-2.06,1.6-3.91,2.81-5.56,1.21-1.64,2.67-3.08,4.38-4.3s3.6-2.23,5.68-3.03,4.32-1.4,6.72-1.8,4.9-.61,7.51-.61ZM60.83,43.42V.78h35.54v3.63h-31.32v14.68h29.73v3.54h-29.73v17.16h31.78v3.63h-36ZM159.97,22.13c0,3.83-.69,7.13-2.08,9.92-1.38,2.78-3.29,5.08-5.71,6.89-2.42,1.81-5.27,3.15-8.56,4.02-3.29.87-6.83,1.3-10.64,1.3s-7.39-.43-10.7-1.3c-3.31-.87-6.18-2.21-8.63-4.02-2.44-1.81-4.35-4.11-5.74-6.89-1.39-2.78-2.08-6.09-2.08-9.92,0-2.55.32-4.86.96-6.94.64-2.08,1.54-3.94,2.7-5.59,1.16-1.64,2.56-3.07,4.21-4.27,1.64-1.2,3.47-2.2,5.49-3,2.02-.8,4.18-1.39,6.5-1.77,2.32-.38,4.75-.57,7.29-.57,3.81,0,7.35.43,10.64,1.3,3.29.87,6.14,2.21,8.56,4.02,2.42,1.81,4.32,4.11,5.71,6.89,1.39,2.78,2.08,6.09,2.08,9.92ZM156,22.13c0-3.02-.49-5.69-1.47-8.01-.98-2.32-2.44-4.27-4.36-5.85-1.93-1.58-4.32-2.78-7.19-3.6-2.87-.82-6.2-1.23-9.98-1.23s-7.13.41-10.02,1.24c-2.89.83-5.31,2.03-7.25,3.62-1.95,1.58-3.42,3.54-4.41,5.87s-1.49,4.98-1.49,7.96.5,5.69,1.49,8.01,2.46,4.27,4.41,5.85c1.95,1.58,4.36,2.78,7.25,3.6,2.89.82,6.23,1.23,10.02,1.23s7.12-.41,9.98-1.23,5.26-2.02,7.19-3.6c1.92-1.58,3.38-3.53,4.36-5.85s1.47-4.99,1.47-8.01ZM225.58,43.42V7.14l-23.43,36.28h-3.45l-23.46-36.44v36.44h-3.88V.78h4.16l25.02,38.64L225.27.78h4.13v42.65h-3.82Z" style="fill: none;"/>
    </clipPath>
  </defs>
  <g style="clip-path: url(#b);">
    <rect x="-16.95" y="-66.76" width="271.78" height="168.24" style="fill: #1e1e1e;"/>
  </g>
</svg>