<svg width="191" height="37" viewBox="0 0 191 37" fill="none" xmlns="http://www.w3.org/2000/svg">
<g clip-path="url(#clip0_94_3183)">
<mask id="mask0_94_3183" style="mask-type:luminance" maskUnits="userSpaceOnUse" x="0" y="-1" width="191" height="38">
<path d="M23.3269 -7.85585e-05C24.9546 -7.85585e-05 26.4826 0.0821437 27.886 0.238366C29.2894 0.394588 30.643 0.633033 31.9302 0.929033C33.2174 1.22503 34.4713 1.58681 35.6921 1.99792C36.9128 2.41726 38.1419 2.8777 39.3792 3.38748V7.26837C38.3993 6.65992 37.3529 6.07614 36.2485 5.53348C35.144 4.99081 33.9482 4.51392 32.661 4.10281C31.3738 3.6917 30.0036 3.37103 28.5337 3.13259C27.0639 2.89414 25.486 2.77903 23.8002 2.77903C20.3622 2.77903 17.3561 3.13259 14.7983 3.84792C12.2323 4.56326 10.1064 5.58281 8.40399 6.90659C6.7016 8.23037 5.43103 9.85014 4.57569 11.7577C3.72864 13.6653 3.29682 15.803 3.29682 18.1875C3.29682 20.4157 3.71203 22.4713 4.55077 24.3541C5.38951 26.237 6.65177 27.8568 8.34586 29.2135C10.0399 30.5784 12.1576 31.639 14.707 32.4037C17.2564 33.1684 20.2377 33.5548 23.6591 33.5548C24.9961 33.5548 26.3331 33.5055 27.6452 33.3986C28.9573 33.2917 30.2029 33.1684 31.3738 33.0039C32.5447 32.8395 33.6077 32.6668 34.571 32.4695C35.5343 32.2721 36.3481 32.0748 37.0208 31.8693V21.2297H22.6127V18.245H40.2429V33.6617C38.9723 34.1057 37.6851 34.4921 36.3896 34.8375C35.0942 35.1828 33.7489 35.4624 32.3703 35.6926C30.9918 35.9228 29.5552 36.0955 28.0687 36.2188C26.5822 36.3339 25.021 36.3997 23.3933 36.3997C20.0633 36.3997 16.9658 36.0297 14.1174 35.2897C11.2607 34.5497 8.79429 33.4233 6.7099 31.9186C4.62551 30.4139 2.98955 28.5228 1.80203 26.237C0.614511 23.9595 0.0249023 21.279 0.0249023 18.1957C0.0249023 16.1401 0.298946 14.2655 0.847033 12.5717C1.39512 10.8779 2.17573 9.35681 3.18055 8.00014C4.18538 6.6517 5.39782 5.4677 6.81786 4.46459C8.2379 3.46148 9.80742 2.63103 11.5347 1.97326C13.262 1.31548 15.1222 0.822144 17.1153 0.493255C19.1083 0.164366 21.1844 -0.00830078 23.3518 -0.00830078L23.3269 -7.85585e-05ZM50.5153 35.7008V0.641255H80.029V3.62592H54.0198V15.6961H78.7086V18.6068H54.0198V32.7161H80.411V35.7008H50.5153ZM132.845 18.1957C132.845 21.3448 132.272 24.0581 131.117 26.3521C129.971 28.6379 128.385 30.529 126.376 32.0173C124.366 33.5055 121.999 34.6073 119.267 35.3226C116.535 36.0379 113.595 36.3915 110.431 36.3915C107.267 36.3915 104.294 36.0379 101.546 35.3226C98.7968 34.6073 96.4135 33.5055 94.3789 32.0173C92.3526 30.529 90.7665 28.6379 89.6122 26.3521C88.4579 24.0664 87.8849 21.3448 87.8849 18.1957C87.8849 16.099 88.1506 14.1997 88.6821 12.4895C89.2136 10.7793 89.961 9.24992 90.9243 7.89326C91.8876 6.54481 93.0502 5.36903 94.4204 4.38237C95.7823 3.3957 97.302 2.57348 98.9795 1.9157C100.657 1.25792 102.451 0.77281 104.377 0.460366C106.304 0.147921 108.322 -0.00830078 110.431 -0.00830078C113.595 -0.00830078 116.535 0.345255 119.267 1.06059C121.999 1.77592 124.366 2.8777 126.376 4.36592C128.385 5.85414 129.963 7.74526 131.117 10.031C132.272 12.3168 132.845 15.0384 132.845 18.1875V18.1957ZM129.548 18.1957C129.548 15.7126 129.141 13.5173 128.327 11.6097C127.513 9.70214 126.301 8.09881 124.706 6.7997C123.104 5.50059 121.119 4.51392 118.736 3.8397C116.352 3.16548 113.587 2.82837 110.448 2.82837C107.309 2.82837 104.527 3.16548 102.127 3.84792C99.7269 4.53037 97.7173 5.51703 96.1062 6.82437C94.4869 8.12348 93.2661 9.73503 92.444 11.6508C91.6219 13.5666 91.2066 15.7455 91.2066 18.1957C91.2066 20.6459 91.6219 22.8741 92.444 24.7817C93.2661 26.6893 94.4869 28.2926 96.1062 29.5917C97.7256 30.8908 99.7269 31.8775 102.127 32.5517C104.527 33.2259 107.3 33.563 110.448 33.563C113.595 33.563 116.361 33.2259 118.736 32.5517C121.111 31.8775 123.104 30.8908 124.706 29.5917C126.301 28.2926 127.513 26.6893 128.327 24.7817C129.141 22.8741 129.548 20.6788 129.548 18.1957ZM187.329 35.7008V5.87059L167.872 35.7008H165.007L145.525 5.73903V35.7008H142.303V0.641255H145.758L166.535 32.4119L187.072 0.641255H190.502V35.709H187.329V35.7008Z" fill="white"/>
</mask>
<g mask="url(#mask0_94_3183)">
<path d="M211.62 -54.8916H-14.0759V83.4391H211.62V-54.8916Z" fill="#1E1E1E"/>
</g>
</g>
<defs>
<clipPath id="clip0_94_3183">
<rect width="190.502" height="36.3916" fill="white"/>
</clipPath>
</defs>
</svg>
